<?xml version="1.0" standalone="no"?><!DOCTYPE svg PUBLIC "-//W3C//DTD SVG 1.1//EN" "http://www.w3.org/Graphics/SVG/1.1/DTD/svg11.dtd"><svg class="icon" width="64px" height="64.00px" viewBox="0 0 1024 1024" version="1.1" xmlns="http://www.w3.org/2000/svg"><path fill="#ffffff" d="M932.040704 346.648576c-22.464512-22.515712-30.198784-15.367168-60.398592 14.88384l-9.5488-9.566208L455.612416 759.534592 409.82016 870.21568l105.673728-42.735616 411.22816-410.710016-9.531392-9.566208C947.391488 376.935424 954.522624 369.181696 932.040704 346.648576zM502.112256 802.01216l-2.953216 1.190912-22.480896-22.53312 1.190912-2.953216L862.11072 392.45824l24.242176 24.311808L502.112256 802.01216zM194.56 236.032 753.664 236.032 753.664 403.968 782.336 403.968 782.336 207.36 165.888 207.36 165.888 824.832 410.624 824.832 410.624 796.16 194.56 796.16ZM350.208 367.104l304.128 0 0 36.864-304.128 0 0-36.864ZM285.696 366.08l36.864 0 0 36.864-36.864 0 0-36.864ZM350.208 479.744l304.128 0 0 36.864-304.128 0 0-36.864ZM285.696 478.72l36.864 0 0 36.864-36.864 0 0-36.864ZM350.208 597.504l190.464 0 0 36.864-190.464 0 0-36.864ZM285.696 596.48l36.864 0 0 36.864-36.864 0 0-36.864ZM753.664 796.16 608.256 796.16 608.256 824.832 782.336 824.832 782.336 660.992 753.664 660.992Z" /></svg>