<?xml version="1.0" standalone="no"?><!DOCTYPE svg PUBLIC "-//W3C//DTD SVG 1.1//EN" "http://www.w3.org/Graphics/SVG/1.1/DTD/svg11.dtd"><svg class="icon" width="64px" height="63.81px" viewBox="0 0 1027 1024" version="1.1" xmlns="http://www.w3.org/2000/svg"><path fill="#ffffff" d="M989.781546 1024H41.368579c-15.321696 0-28.089776-12.76808-28.089776-28.089776V40.857855c0-15.321696 12.76808-28.089776 28.089776-28.089775h948.412967c15.321696 0 28.089776 12.76808 28.089776 28.089775v955.052369c0 15.321696-12.76808 28.089776-28.089776 28.089776z m-920.323192-56.179551h892.233417v-898.872818H69.458354v898.872818z"  /><path fill="#ffffff" d="M803.878304 260.979551h-474.972568c-15.321696 0-28.089776-12.76808-28.089776-28.089775s12.76808-28.089776 28.089776-28.089776h474.972568c15.321696 0 28.089776 12.76808 28.089776 28.089776s-12.76808 28.089776-28.089776 28.089775zM803.878304 433.60399h-474.972568c-15.321696 0-28.089776-12.76808-28.089776-28.089776s12.76808-28.089776 28.089776-28.089775h474.972568c15.321696 0 28.089776 12.76808 28.089776 28.089775s-12.76808 28.089776-28.089776 28.089776zM803.878304 899.383541h-474.972568c-15.321696 0-28.089776-12.76808-28.089776-28.089775s12.76808-28.089776 28.089776-28.089776h474.972568c15.321696 0 28.089776 12.76808 28.089776 28.089776s-12.76808 28.089776-28.089776 28.089775zM981.099252 772.72419H49.54015c-15.321696 0-28.089776-12.76808-28.089776-28.089776s12.76808-28.089776 28.089776-28.089776h931.559102c15.321696 0 28.089776 12.76808 28.089775 28.089776s-12.76808 28.089776-28.089775 28.089776z"  /><path fill="#ffffff" d="M219.610973 229.825436m-30.643392 0a30.643392 30.643392 0 1 0 61.286783 0 30.643392 30.643392 0 1 0-61.286783 0Z"  /><path fill="#ffffff" d="M219.610973 405.514214m-30.643392 0a30.643392 30.643392 0 1 0 61.286783 0 30.643392 30.643392 0 1 0-61.286783 0Z"  /><path fill="#ffffff" d="M219.610973 871.293766m-30.643392 0a30.643392 30.643392 0 1 0 61.286783 0 30.643392 30.643392 0 1 0-61.286783 0Z"  /></svg>