<?xml version="1.0" standalone="no"?><!DOCTYPE svg PUBLIC "-//W3C//DTD SVG 1.1//EN" "http://www.w3.org/Graphics/SVG/1.1/DTD/svg11.dtd"><svg class="icon" width="64px" height="63.63px" viewBox="0 0 1030 1024" version="1.1" xmlns="http://www.w3.org/2000/svg"><path fill="#ffffff" d="M590.336 290.816H223.744c-14.336 0-25.6-11.264-25.6-25.6s11.264-25.6 25.6-25.6h366.592c14.336 0 25.6 11.264 25.6 25.6s-11.264 25.6-25.6 25.6zM590.336 459.776H223.744c-14.336 0-25.6-11.264-25.6-25.6s11.264-25.6 25.6-25.6h366.592c14.336 0 25.6 11.264 25.6 25.6s-11.264 25.6-25.6 25.6zM417.28 730.624H231.936c-14.336 0-25.6-11.264-25.6-25.6s11.264-25.6 25.6-25.6h185.344c14.336 0 25.6 11.264 25.6 25.6s-11.264 25.6-25.6 25.6z"  /><path fill="#ffffff" d="M389.12 801.28c-6.656 0-13.312-2.56-17.92-7.68-9.728-10.24-9.728-26.112 0-36.352l52.736-52.736-53.248-53.248c-10.24-10.24-10.24-26.112 0-36.352s26.112-10.24 36.352 0L478.208 686.08c4.608 4.608 7.68 11.264 7.68 17.92s-2.56 13.312-7.68 17.92l-71.168 71.68c-5.12 5.12-11.264 7.68-17.92 7.68zM766.464 962.56c20.48 0 41.472-3.072 61.44-9.216 2.048-1.024 3.072-1.024 5.632-2.048 1.024 0 1.024 0 2.048-1.024 90.112-29.696 151.04-113.664 151.04-208.384 0-23.552-4.096-46.592-10.752-68.608-2.048-4.096-5.12-8.192-9.216-9.216-17.408-5.632-35.84-9.216-53.76-10.752v-5.632c0-17.408-2.56-34.816-8.192-51.2-2.048-4.096-5.12-8.192-9.216-9.216-16.896-5.632-33.792-8.192-51.2-8.192-26.624 0-52.224 6.656-76.288 17.92-23.552-11.776-48.64-17.92-75.264-17.92-17.408 0-34.816 2.56-51.2 8.192-4.096 2.048-8.192 5.12-9.216 9.216-5.632 16.896-8.192 33.792-8.192 51.2v5.632c-17.92 1.024-36.352 5.12-53.76 10.752-4.096 2.048-8.192 5.12-9.216 9.216-7.68 22.528-10.752 45.568-10.752 68.608-3.072 121.856 95.232 220.672 216.064 220.672z m190.464-219.648c0 73.216-40.96 137.216-104.448 169.984v-2.048c0-2.048 1.024-3.072 1.024-5.632 0-2.048 0-2.56 1.024-4.096 0-2.048 1.024-4.096 1.024-5.632v-3.072c0-2.56 0-4.096 1.024-6.656v-3.072-9.216-11.776-4.096c0-2.56 0-5.12-1.024-6.656 0-2.048 0-2.56-1.024-4.096 0-2.56-1.024-5.12-1.024-7.68v-2.56c-7.68-46.592-29.696-88.576-62.976-121.856 23.552-15.36 49.664-26.624 76.8-30.208h2.56c2.048 0 2.56 0 4.096-1.024 2.048 0 2.56 0 4.096-1.024h2.56c2.048 0 4.096 0 5.632-1.024h9.728c17.408 0 35.84 2.56 52.224 7.68 6.144 17.92 8.704 35.328 8.704 53.76z m-78.848-130.048c3.072 11.776 5.12 23.552 5.12 34.816v5.632h-2.048c-2.56 0-5.632 1.024-8.192 1.024h-3.072c-3.072 1.024-6.656 1.024-9.728 2.048-2.56 0-4.096 1.024-6.656 2.048-1.024 0-2.56 1.024-3.072 1.024-2.56 1.024-5.12 1.024-7.68 2.048-1.024 0-2.048 1.024-2.56 1.024-2.048 1.024-3.072 1.024-5.12 2.048 0-1.024-1.024-2.048-1.024-2.048-1.024-1.024-1.024-2.048-2.048-3.072-1.024-1.024-2.048-2.56-2.048-3.072 0-1.024-1.024-2.048-2.048-2.048-9.216-13.824-19.968-26.112-32.256-35.84 26.624-11.776 55.808-12.288 82.432-5.632z m-221.696 0c11.776-3.072 23.552-5.12 34.816-5.12 26.112 0 50.688 7.68 71.168 20.48 1.024 1.024 2.56 2.048 3.072 2.56 2.048 1.024 2.56 2.048 4.096 3.072 1.024 1.024 2.56 2.048 3.072 2.56 2.048 1.024 2.56 2.56 4.096 3.072l2.56 2.56c5.12 4.096 9.728 9.216 14.336 14.336l2.56 2.56c1.024 2.048 2.048 2.56 3.072 4.096 1.024 1.024 2.048 2.56 2.56 3.072 1.024 2.048 2.048 2.56 2.56 4.096 1.024 1.024 1.024 2.048 2.048 2.048-5.632 2.56-10.752 5.12-15.36 8.192-1.024 0-2.048 1.024-2.56 1.024-2.048 1.024-4.096 2.56-5.632 3.072-1.024 1.024-2.56 2.048-3.072 2.56-2.048 1.024-3.072 2.048-5.12 3.072-2.048 1.024-3.072 2.56-5.12 3.072-1.024 1.024-2.048 1.024-2.56 2.048-10.752-8.192-22.528-14.848-33.792-20.48-1.024-1.024-2.56-1.024-3.072-2.048-2.048-1.024-3.072-2.048-5.12-2.048-2.048-1.024-3.072-2.048-5.12-2.56-1.024 0-1.024-1.024-2.048-1.024-14.336-5.632-27.648-9.728-42.496-12.288h-1.024c-6.656-1.024-13.824-2.048-20.48-2.56h-2.56v-5.632c0-10.24 2.048-22.528 5.12-33.792z m-71.68 77.312c17.408-5.12 34.816-7.68 52.224-7.68h0.512c8.192 0 15.36 1.024 24.064 2.048h1.024c2.56 0 5.12 1.024 7.68 1.024 13.824 2.56 26.624 5.632 38.912 11.776 2.048 1.024 3.072 2.048 5.12 2.56 1.024 1.024 2.56 1.024 3.072 2.048 1.024 1.024 2.56 1.024 3.072 2.048 2.048 1.024 3.072 2.048 5.12 2.56 1.024 0 2.048 1.024 2.048 1.024 2.56 2.048 5.12 2.56 6.656 4.096 36.352 22.528 64.512 55.296 79.872 95.744 0 1.024 1.024 2.048 1.024 2.56 1.024 2.56 2.048 4.096 2.56 6.656 0 1.024 1.024 2.56 1.024 3.072 1.024 2.048 1.024 3.072 2.048 5.632 0 2.048 1.024 2.56 1.024 4.096s1.024 3.072 1.024 5.12 1.024 3.072 1.024 5.12 1.024 3.072 1.024 4.096c0 2.048 1.024 4.096 1.024 5.632 0 2.048 0 2.56 1.024 4.096 0 2.56 0 4.096 1.024 6.656v12.8c0 13.824-2.048 26.624-4.096 39.424v2.048c-73.216 0-132.608-59.392-132.608-133.632 0-8.192-6.656-14.848-14.848-14.848-8.192 0-14.848 6.656-14.848 14.848 0 68.608 42.496 128 103.424 151.552-103.424-2.048-186.368-86.016-186.368-189.952-1.536-17.92 1.024-35.328 6.144-52.224z"  /><path fill="#ffffff" d="M766.464 972.8c-61.952 0-119.296-24.064-162.304-68.608-42.496-43.52-65.536-101.376-64-162.816 0-25.6 3.584-49.152 11.264-71.168 1.536-6.144 6.656-11.776 14.336-15.36l1.536-0.512c16.384-5.12 32.256-8.704 46.592-10.24 0.512-17.408 3.072-33.792 8.704-50.176 1.536-6.144 6.656-11.776 14.336-15.36l1.024-0.512c16.896-5.632 35.328-8.704 54.784-8.704 26.112 0 51.712 5.632 75.264 16.896 25.088-11.264 50.688-16.896 76.288-16.896 18.944 0 36.864 3.072 54.272 8.704 6.144 1.536 11.776 6.656 15.36 14.336l0.512 1.024c5.632 15.872 8.192 32.768 8.704 50.688 15.872 2.048 31.744 5.632 46.592 10.24 6.144 1.536 11.776 6.656 15.36 14.336l0.512 1.536c7.68 24.576 11.264 48.64 11.264 71.68 0 98.816-62.464 185.856-156.16 217.6-1.536 1.024-3.072 1.536-4.608 2.048-0.512 0.512-1.536 0.512-2.048 0.512-0.512 0-1.024 0-1.536 0.512l-1.536 0.512c-20.48 6.144-43.008 9.728-64.512 9.728z m-192-299.008c-2.048 1.024-3.072 2.048-3.584 2.56v0.512c-6.656 19.968-10.24 41.472-10.24 65.536-1.536 55.808 18.944 108.544 57.856 147.968 38.912 39.936 91.648 62.464 147.968 62.464 19.456 0 39.424-3.072 57.856-8.704 1.536-0.512 2.56-1.024 3.584-1.536 0.512 0 1.024-0.512 1.536-0.512l0.512-0.512 2.56-1.024c86.016-28.16 143.872-108.032 143.872-198.656 0-20.48-3.584-42.496-10.24-64.512-1.024-2.048-2.048-3.072-2.56-3.072-16.384-5.12-34.304-8.704-51.712-10.24l-9.216-1.024v-14.848c0-16.896-2.56-32.768-7.168-47.104-1.024-2.048-2.048-3.072-2.56-3.584-15.872-5.12-31.744-7.68-48.64-7.68-23.552 0-48.128 5.632-72.192 16.896l-4.608 2.048-4.608-2.048c-22.528-11.264-46.08-16.896-70.656-16.896-16.896 0-32.768 2.56-47.104 7.168-2.048 1.024-3.072 2.048-3.584 2.56-5.12 15.872-7.68 31.744-7.68 48.64v15.36l-9.728 0.512c-14.848 0.512-31.744 3.584-49.664 9.728z m248.32 269.824l-57.856-1.024c-110.08-2.048-196.096-90.112-196.608-199.68-1.536-17.92 0.512-36.352 6.656-55.808l1.536-5.12 5.12-1.536c18.432-5.12 36.864-8.192 55.296-8.192 8.192 0 14.848 1.024 22.016 1.536l3.584 0.512c2.048 0 4.096 0.512 5.632 0.512 0.512 0 1.024 0.512 2.048 0.512h2.048c13.312 2.56 27.648 5.632 41.472 12.8 1.024 0.512 2.048 1.024 2.56 1.536l0.512 0.512 2.56 0.512 1.024 1.024c1.024 0.512 2.048 1.024 3.072 2.048 1.024 0.512 2.048 1.024 3.072 2.048 0.512 0 0.512 0.512 1.024 0.512 0 0 0.512 0 0.512 0.512 2.56 0.512 5.12 2.048 6.144 3.072 0.512 0.512 1.024 0.512 1.536 1.024 1.024 0.512 3.072 1.536 4.608 2.56 38.912 24.064 67.584 58.88 83.456 100.352l0.512 1.024c0.512 0.512 0.512 1.024 1.024 2.048 0 0.512 0.512 1.024 0.512 1.024 0.512 1.536 1.536 3.584 2.56 6.656 0 0.512 0.512 1.024 0.512 1.536 0.512 1.536 1.024 2.56 1.536 3.584 0 0.512 0.512 1.024 0.512 2.048l0.512 2.048v1.024c0.512 1.024 1.024 2.56 1.024 4.096 0.512 1.536 1.024 3.072 1.024 5.632 0.512 1.024 1.024 3.072 1.024 5.12 0.512 1.024 1.024 3.072 1.024 5.12v0.512c0.512 1.024 0.512 2.56 1.024 4.608l1.024 1.024v3.072c0 2.048 0 2.048 0.512 3.072l0.512 2.048v14.848c0 14.336-2.048 27.648-4.096 40.448v11.264h-10.24c-78.848 0-142.848-64.512-142.848-143.872 0-2.56-2.048-4.608-4.608-4.608s-4.608 2.048-4.608 4.608c0 62.464 38.912 119.808 96.768 141.824l53.76 19.968z m-229.888-245.248c-4.096 14.848-5.632 29.184-4.096 43.008v1.024c0 80.896 51.712 148.48 124.928 171.52-38.4-32.256-62.464-80.896-62.464-133.12 0-13.824 11.264-25.088 25.088-25.088s25.088 11.264 25.088 25.088c0 65.024 50.176 118.272 113.152 122.88 1.536-10.24 3.072-20.48 3.072-30.72v-11.264c-0.512-2.048-1.024-4.096-1.024-5.632-1.024-2.048-1.024-4.096-1.024-6.144v-0.512c-0.512-1.024-0.512-2.56-1.024-4.096-0.512-1.024-1.024-3.072-1.024-5.12-0.512-1.536-1.024-3.072-1.024-5.12v-0.512c-0.512-1.024-0.512-2.048-1.024-3.584-0.512-1.024-0.512-2.048-1.024-3.584-0.512-1.024-0.512-1.536-0.512-2.048 0-0.512 0-1.024-0.512-1.536l-1.024-2.56c-0.512-1.024-0.512-2.048-1.024-3.072 0-0.512-0.512-1.024-1.024-2.048s-1.024-1.536-1.024-2.56c-0.512-1.024-1.024-2.048-1.536-3.584-14.336-36.864-40.448-68.096-75.264-89.6l-1.536-1.024s-0.512 0-0.512-0.512c-1.024-0.512-3.072-1.536-4.608-2.56-2.048-0.512-4.096-1.536-5.12-2.56-0.512 0-0.512-0.512-1.024-0.512l-3.072-1.536-0.512-0.512c-0.512-0.512-1.024-1.024-2.048-1.536-0.512 0-0.512-0.512-1.024-0.512-1.536-0.512-3.072-1.536-4.096-2.048-0.512 0-0.512-0.512-1.024-0.512-10.752-5.632-22.016-8.192-35.328-10.752-2.048 0-3.584-0.512-4.608-0.512-0.512 0-1.024-0.512-2.048-0.512h-2.048l-3.584-0.512c-6.656-1.024-12.8-1.536-19.456-1.536-14.336 0-29.184 2.048-44.032 5.632z m219.648 136.192z m20.48 0z m9.216 95.232v-18.944c0-2.56 0.512-4.608 1.024-5.632 0-2.56 0-4.608 1.536-7.168 0-1.024 0.512-2.048 0.512-2.56v-3.072c0-2.56 0-5.12 1.024-8.192v-26.624-2.048l-1.024-1.536v-2.56l-0.512-1.536-0.512-3.072c0-0.512 0-1.024-0.512-2.048-0.512-1.536-0.512-3.584-0.512-5.632v-1.536c-7.168-43.52-28.16-83.456-59.904-115.712l-8.704-8.704 10.752-6.656c27.136-17.408 54.272-28.16 80.896-31.744h3.584l1.024-1.024h2.56l1.536-1.024h6.656l1.536-1.024h12.8c18.944 0 38.4 3.072 55.296 8.192l5.12 1.536 1.536 5.12c6.144 17.92 9.216 36.864 9.216 56.832 0 75.264-41.984 143.872-110.08 179.2l-14.848 7.168z m23.552-81.408c1.024 3.072 1.024 6.656 1.024 9.216v30.208l-0.512 2.048c-0.512 0.512-0.512 0.512-0.512 3.072v1.024c50.176-33.792 80.896-89.6 80.896-150.528 0-16.384-2.048-30.72-6.656-45.568-13.824-3.584-29.184-5.632-44.032-5.632h-7.68c-3.072 1.024-5.632 1.024-7.68 1.024-1.536 0.512-2.56 1.024-4.096 1.024-2.56 1.024-4.608 1.024-6.656 1.024h-2.048c-19.968 2.56-40.96 10.24-61.44 22.016 30.208 33.28 49.664 74.24 56.832 118.272v4.096c0 0.512 0 1.024 0.512 2.048 0 1.024 0.512 2.048 0.512 3.072 1.024 1.024 1.536 2.048 1.536 3.584z m-95.232-137.216l-9.728-7.68c-8.704-6.656-18.944-12.8-32.256-19.456l-2.048-1.024c-1.024-0.512-2.048-1.024-3.072-2.048h-1.024l-2.048-1.024c-1.024-0.512-2.048-1.024-2.56-1.536 0 0-0.512 0-0.512-0.512-1.024-0.512-2.56-1.024-4.096-1.536-14.336-5.632-26.624-9.216-38.912-11.264h-1.536c-6.144-1.024-12.8-2.048-19.456-2.56h-12.288v-15.872c0-10.752 2.048-23.552 5.632-36.352l1.536-5.632 5.632-1.536c13.824-3.584 26.112-5.632 37.376-5.632 27.136 0 53.76 7.68 76.8 22.016l1.024 0.512 1.024 1.024 1.024 1.024 0.512 0.512c1.536 1.024 3.072 2.048 3.584 2.56l1.024 0.512 1.024 1.024 1.024 1.024 0.512 0.512c1.536 1.024 2.048 1.536 3.072 2.56l1.024 0.512 4.096 4.096c5.632 4.608 10.24 9.728 14.848 14.848l3.584 3.584 0.512 1.536c0.512 1.024 1.536 1.536 2.048 2.048l2.048 2.048 1.024 1.024 0.512 1.536s0 0.512 0.512 0.512h9.216l-1.536-2.048c-9.216-13.824-18.944-25.088-30.208-33.28l-13.312-10.752 15.36-6.656c27.136-11.776 57.856-13.824 89.088-6.144l6.144 1.536 1.536 5.632c3.584 13.824 5.632 26.112 5.632 37.376v15.872h-12.288c-0.512 0-1.536 0-2.048 0.512-1.536 0.512-3.584 0.512-6.144 0.512h-1.536c-1.536 0.512-3.072 0.512-4.608 1.024-1.024 0-2.56 0.512-3.072 0.512l-1.536 0.512h-2.56s-0.512 0.512-1.024 0.512c-0.512 0.512-1.536 0.512-2.048 1.024l-2.048 0.512c-0.512 0-1.024 0.512-1.536 0.512-2.048 0.512-3.584 1.024-4.608 1.024-1.024 0-1.536 0.512-2.048 0.512l-1.536 0.512c-0.512 0-1.024 0.512-1.024 0.512-1.024 0.512-2.048 1.024-3.072 1.024-0.512 0-0.512 0-1.024 0.512l-14.848 7.168v-6.144l-14.336 6.656c-4.608 2.048-9.728 4.608-13.824 7.168l-2.56 1.536h-1.024-0.512c-0.512 0-1.024 0.512-1.024 0.512-1.024 0.512-1.536 1.024-2.56 1.536-0.512 0.512-1.024 0.512-1.536 1.024l-1.024 1.024-1.536 0.512c-0.512 0.512-1.024 0.512-1.536 1.024-1.024 0.512-2.048 1.536-3.584 2.048l-0.512 0.512c-1.024 0.512-2.048 1.536-3.584 2.56l-5.632 10.24z m-31.744-45.056c11.264 5.632 20.48 10.752 28.672 16.896 0.512-0.512 1.536-1.024 3.072-1.536 0.512-0.512 1.024-0.512 1.536-1.024 1.024-0.512 1.536-1.024 2.56-1.536l0.512-0.512c0.512 0 0.512-0.512 1.024-1.024l1.536-1.536 2.56-1.024s0.512-0.512 1.024-0.512c1.024-0.512 2.048-1.536 3.072-2.048l2.048-1.024s0.512 0 0.512-0.512c1.024-1.024 2.56-1.536 3.584-2.048-1.024-1.024-1.536-2.048-2.56-3.584l-2.048-2.048c-4.608-5.12-8.704-9.728-13.312-13.312l-2.56-2.048c-1.536-1.024-2.56-2.048-3.072-2.56l-1.024-0.512-1.024-1.024c-0.512-0.512-1.536-1.024-2.048-2.048-0.512-0.512-1.536-1.024-2.048-1.536l-1.536-0.512-1.536-1.536c-0.512-0.512-1.536-1.024-2.048-1.536-19.456-12.288-41.984-18.432-65.024-18.432-7.68 0-16.384 1.024-26.624 3.584-1.536 7.68-3.072 14.848-3.072 21.504 4.608 0.512 9.216 1.024 13.312 2.048h2.048c14.336 2.56 27.648 6.144 43.52 12.288 1.024 0.512 2.048 0.512 3.584 1.536 2.048 0.512 3.072 1.536 4.096 2.048 2.56 0.512 4.096 1.536 5.632 2.048 0.512 0 0.512 0.512 1.024 0.512l3.072 1.536 0.512 0.512c0.512 0 0.512 0.512 1.024 0.512z m80.896-9.728z m15.36-10.24c2.048 1.536 3.584 3.072 4.608 5.632h1.024c1.536-0.512 3.072-1.024 4.608-1.024 1.024 0 1.536-0.512 2.048-0.512l2.048-0.512c0.512 0 1.536-0.512 2.048-0.512h0.512c2.048-1.024 4.096-2.048 7.168-2.048 2.048-0.512 3.584-0.512 5.12-1.024 1.024 0 2.56-0.512 3.072-0.512l1.536-0.512h4.608c-0.512-6.656-1.536-14.336-3.072-22.528-14.848-3.072-34.304-4.608-54.272 1.024 6.144 5.632 12.8 13.824 18.944 22.528z m-76.8-8.192z"  /><path fill="#ffffff" d="M322.56 1005.056H43.52c-14.336 0-25.6-11.264-25.6-25.6V35.84c0-14.336 11.264-25.6 25.6-25.6h733.696c14.336 0 25.6 11.264 25.6 25.6v276.992c0 14.336-11.264 25.6-25.6 25.6s-25.6-11.264-25.6-25.6V61.44H69.12v892.416H322.56c14.336 0 25.6 11.264 25.6 25.6s-11.264 25.6-25.6 25.6z"  /></svg>